<?xml version="1.0" standalone="no"?>
<!DOCTYPE svg PUBLIC "-//W3C//DTD SVG 1.1//EN" "http://www.w3.org/Graphics/SVG/1.1/DTD/svg11.dtd" >
<svg xmlns="http://www.w3.org/2000/svg">
<metadata>
Created by FontForge 20120731 at Fri Dec 18 21:04:57 2015
 By Ads
</metadata>
<defs>
<font id="iconfont" horiz-adv-x="1024" >
  <font-face 
    font-family="iconfont"
    font-weight="500"
    font-stretch="normal"
    units-per-em="1024"
    panose-1="2 0 6 3 0 0 0 0 0 0"
    ascent="896"
    descent="-128"
    x-height="792"
    bbox="-0.681818 -128.755 1316.46 896.2"
    underline-thickness="50"
    underline-position="-100"
    unicode-range="U+0078-E61D"
  />
<missing-glyph horiz-adv-x="374" 
d="M34 0v682h272v-682h-272zM68 34h204v614h-204v-614z" />
    <glyph glyph-name=".notdef" horiz-adv-x="374" 
d="M34 0v682h272v-682h-272zM68 34h204v614h-204v-614z" />
    <glyph glyph-name=".null" horiz-adv-x="0" 
 />
    <glyph glyph-name="nonmarkingreturn" horiz-adv-x="341" 
 />
    <glyph glyph-name="x" unicode="x" horiz-adv-x="1001" 
d="M281 543q-27 -1 -53 -1h-83q-18 0 -36.5 -6t-32.5 -18.5t-23 -32t-9 -45.5v-76h912v41q0 16 -0.5 30t-0.5 18q0 13 -5 29t-17 29.5t-31.5 22.5t-49.5 9h-133v-97h-438v97zM955 310v-52q0 -23 0.5 -52t0.5 -58t-10.5 -47.5t-26 -30t-33 -16t-31.5 -4.5q-14 -1 -29.5 -0.5
t-29.5 0.5h-32l-45 128h-439l-44 -128h-29h-34q-20 0 -45 1q-25 0 -41 9.5t-25.5 23t-13.5 29.5t-4 30v167h911zM163 247q-12 0 -21 -8.5t-9 -21.5t9 -21.5t21 -8.5q13 0 22 8.5t9 21.5t-9 21.5t-22 8.5zM316 123q-8 -26 -14 -48q-5 -19 -10.5 -37t-7.5 -25t-3 -15t1 -14.5
t9.5 -10.5t21.5 -4h37h67h81h80h64h36q23 0 34 12t2 38q-5 13 -9.5 30.5t-9.5 34.5q-5 19 -11 39h-368zM336 498v228q0 11 2.5 23t10 21.5t20.5 15.5t34 6h188q31 0 51.5 -14.5t20.5 -52.5v-227h-327z" />
    <glyph glyph-name="uniE601" unicode="&#xe601;" horiz-adv-x="1083" 
d="M986 281v-337q0 -10 -5 -18t-13 -13t-18 -5h-878q-15 0 -25.5 10.5t-10.5 25.5v878q0 15 10.5 25.5t25.5 10.5h367v36h-379q-12 0 -23 -4.5t-19 -12.5t-13 -19.5t-5 -23.5v-902q0 -25 17.5 -42.5t42.5 -17.5h902q25 0 42.5 17.5t17.5 42.5v349h-36zM830 658v37
q-141 -7 -239 -109.5t-98 -244.5q0 -12 1 -30h36q-1 3 -1 7v6v8q0 135 95 230q86 86 206 96zM1040 696h-216q-8 0 -13 -5.5t-5 -12.5q0 -5 2 -9.5t6.5 -6.5t9.5 -2h216q5 0 9.5 2t6.5 6.5t2 9.5t-2 9t-6.5 6.5t-9.5 2.5zM583 894h-216q-8 0 -13 -5t-5 -13q0 -2 1 -4v-4
q1 -2 2.5 -3.5t3 -2.5t3.5 -2t4 -1.5t4 -0.5h216q8 0 13 5t5 13q0 4 -1 7.5t-3.5 5.5t-6 3.5t-7.5 1.5zM1004 359q-8 0 -13 -5t-5 -13v-216q0 -8 5 -13t13 -5q4 0 7.5 1t5.5 3.5t3.5 6t1.5 7.5v216q0 8 -5 13t-13 5zM511 365q-8 0 -13 -5t-5 -13v-84q0 -8 5 -13t13 -5
q4 0 7.5 1.5t5.5 3.5t3.5 5.5t1.5 7.5v84q0 8 -5 13t-13 5zM1074 695l-196 196q-5 5 -12.5 5t-12.5 -5.5t-5 -13t5 -12.5l196 -195q5 -5 12.5 -5t12.5 5q12 13 0 25zM1077 690.5q-5 5.5 -13 5.5t-13 -6l-198 -197q-5 -6 -5 -13.5t5 -12.5q3 -3 6.5 -4.5t7 -1.5t6.5 1.5
t6 4.5l198 198q5 5 5 12.5t-5 13z" />
    <glyph glyph-name="uniE602" unicode="&#xe602;" 
d="M512 896q-139 0 -257 -68.5t-186.5 -186.5t-68.5 -257t68.5 -257t186.5 -186.5t257 -68.5t257 68.5t186.5 186.5t68.5 257t-68.5 257t-186.5 186.5t-257 68.5zM512 -92q-97 0 -185 38t-151.5 101.5t-101.5 151.5t-38 185q0 77 24 150t68 131.5t102.5 102.5t131.5 68
t150 24t150 -24t131.5 -68t102.5 -102.5t68 -131.5t24 -150q0 -197 -139.5 -336.5t-336.5 -139.5zM518 727q-87 0 -149 -61.5t-62 -149t62 -149t149 -61.5t149 61.5t62 149t-62 149t-149 61.5zM518 342q-72 0 -123.5 51t-51.5 123.5t51.5 123.5t123.5 51t123.5 -51
t51.5 -123.5t-51.5 -123.5t-123.5 -51zM595 535l-59 1l-19 59l-20 -59l-59 -1l47 -38l-17 -59l48 35l49 -35l-17 59zM312 183l21 -65l16 -40l2 -1l21 37l-36 104l-110 -20l-20 -36l39 7zM252 169l84 -48zM424 275l-71 -123l-18 -31l31 -18l95 164q-11 1 -20 3t-17 5z
M345 330q-12 13 -23 33l-101 -176l31 -18l18 31zM681 83l16 40l21 66l68 -15l38 -6l-20 35l-109 21l-37 -105l21 -36h2zM677 158l-69 119q-16 -4 -38 -6l94 -162l87 50l-55 -32zM714 357q-1 -2 -3 -5l-4 -6l-4 -4l-4 -6l-4 -4q-2 -3 -5 -5l70 -121l18 -32l32 18z" />
    <glyph glyph-name="uniE603" unicode="&#xe603;" horiz-adv-x="1085" 
d="M988 179v-235q0 -15 -10.5 -25.5t-25.5 -10.5h-880q-15 0 -25.5 10.5t-10.5 25.5v880q0 15 10.5 25.5t25.5 10.5h880q9 0 17.5 -5t13.5 -13.5t5 -17.5v-235h36v247q0 25 -17.5 42.5t-42.5 17.5h-904q-25 0 -42.5 -17.5t-17.5 -42.5v-904q0 -25 17.5 -42.5t42.5 -17.5h904
q16 0 30 8t22 22t8 30v247h-36zM1024 510h-410q-24 0 -42 -17.5t-18 -42.5v-132q0 -25 18 -42.5t42 -17.5h410q25 0 42.5 17.5t17.5 42.5v132q0 12 -4.5 23.5t-12.5 19.5t-19.5 12.5t-23.5 4.5zM1048 330q0 -10 -5 -18.5t-13 -13t-18 -4.5h-386q-9 0 -17.5 4.5t-13.5 13
t-5 18.5v108q0 15 11 25.5t25 10.5h386q15 0 25.5 -10.5t10.5 -25.5v-108zM693 372zM663 371.5q0 12.5 8.5 21.5t21 9t21.5 -9t9 -21q0 -22 -21 -29q-5 -1 -9 -1q-13 0 -21.5 8.5t-8.5 21zM1006 197q-8 0 -13 -5t-5 -13v-205q0 -3 1.5 -6.5t3.5 -6t5.5 -4t7.5 -1.5
q8 0 13 5.5t5 12.5v205q0 4 -1.5 7.5t-4 5.5t-5.5 3.5t-7 1.5zM1006 812q-5 0 -9 -2.5t-6.5 -6.5t-2.5 -9v-205q0 -5 2.5 -9.5t6.5 -6.5t9 -2t9 2t6.5 6.5t2.5 9.5v205q0 7 -5 12.5t-13 5.5z" />
    <glyph glyph-name="uniE604" unicode="&#xe604;" 
d="M670 640h-316q-8 0 -13.5 -5.5t-5.5 -14.5q0 -8 5.5 -13.5t13.5 -5.5h316q8 0 13.5 5.5t5.5 13.5q0 9 -5.5 14.5t-13.5 5.5zM670 489h-316q-5 0 -9.5 -2.5t-7 -7t-2.5 -10.5q0 -2 0.5 -5t2 -5t3 -3.5t4 -3t5 -2t4.5 -0.5h316q3 0 6 1t5.5 2.5t4 4t2.5 5.5t1 6q0 4 -1.5 8
t-4 6.5t-6 4t-7.5 1.5zM604 338h-250q-8 0 -13.5 -5.5t-5.5 -14.5q0 -5 2.5 -9.5t7 -7t9.5 -2.5h250q4 0 7.5 1.5t6.5 4t4.5 6t1.5 7.5q0 9 -6 14.5t-14 5.5zM184 824q0 14 9.5 23.5t23.5 9.5h597q5 0 10 -2t9 -5t7.5 -7t5 -9t1.5 -10v-831h39v837q0 18 -8.5 33t-24 24
t-32.5 9h-611q-18 0 -33 -9t-24 -24t-9 -33v-837h40v831zM604 3l-85 79l-73 -59l-72 59l-72 -59l-72 52l-86 -85v-13h40l46 53l72 -53l72 59l72 -59l73 59l59 -59h2l-9 7zM138 -128zM794 82l-72 -59l-72 52l-79 -65l7 -33h6l66 53l72 -53l72 59l53 -59h26l13 20zM558 -128z
M866.5 266q-8.5 0 -14 -5.5t-5.5 -14.5v-262q0 -9 5.5 -14.5t14 -5.5t14 5.5t5.5 14.5v262q0 9 -5.5 14.5t-14 5.5zM164 266q-8 0 -14 -5.5t-6 -14.5v-262q0 -9 6 -14.5t14 -5.5t14 5.5t6 14.5v262q0 6 -2.5 10.5t-7 7t-10.5 2.5z" />
    <glyph glyph-name="uniE605" unicode="&#xe605;" 
d="M515 721q-62 0 -106.5 -44t-44.5 -106.5t44.5 -106.5t106.5 -44t106.5 44t44.5 107q0 20 -5.5 39.5t-15.5 36t-23.5 30.5t-30 23.5t-36.5 15t-40 5.5zM515 459q-46 0 -78.5 33t-32.5 79t32.5 78.5t78.5 32.5t78.5 -32.5t32.5 -78.5q0 -23 -8.5 -43.5t-23.5 -35.5
t-35.5 -24t-43.5 -9zM852 520v-16h36v8v8q0 76 -29.5 146t-80 120t-120 80t-146.5 30q-34 0 -67.5 -6t-64 -17.5t-58.5 -28t-52.5 -37.5t-45.5 -45t-37 -52.5t-27.5 -58.5t-17.5 -63.5t-6 -67.5q0 -102 51 -190h42q-57 85 -57 190q0 69 27 132t72.5 108.5t108.5 72.5t132 27
t132 -27t108.5 -72.5t72.5 -108.5t27 -132zM870.5 547q-2.5 0 -5 -1t-4.5 -2t-3.5 -2.5t-2.5 -3.5t-2 -4.5t-1 -4.5v-31q0 -7 5.5 -12.5t12.5 -5.5q4 0 7.5 1.5t6 4t3.5 6t1 6.5v31q0 2 -0.5 4.5t-1.5 4.5t-2.5 3.5t-3.5 2.5t-4.5 2t-5 1zM832 337q-3 3 -8 3.5t-9.5 -1.5
t-7.5 -6l-303 -414l29 -22l303 415q5 6 3.5 13t-7.5 12zM518 -123l17 22l-313 442q-3 3 -7.5 5t-9 1.5t-8.5 -3.5q-6 -4 -7 -11.5t3 -13.5l317 -447z" />
    <glyph glyph-name="uniE606" unicode="&#xe606;" 
d="M791 854l-34 42l-524 -516l524 -508l34 42l-491 466z" />
    <glyph glyph-name="uniE607" unicode="&#xe607;" 
d="M512 896q-188 0 -331 -122q-137 -116 -172 -292q-9 -49 -9 -98q0 -104 40.5 -199t109 -163.5t163.5 -109t199 -40.5t199 40.5t163.5 109t109 163.5t40.5 199q0 70 -18.5 136t-51.5 122.5t-80 103.5t-103.5 80t-122.5 51.5t-136 18.5zM512 -92q-97 0 -185 38t-151.5 101.5
t-101.5 151.5t-38 185q0 178 117 313q113 129 281 156q39 7 78 7q43 0 85.5 -7.5t80.5 -22.5t74 -35.5t66.5 -47t57 -57t47 -66.5t35.5 -74t22.5 -80.5t7.5 -85.5q0 -178 -117 -313q-113 -129 -281 -156q-39 -7 -78 -7zM717 559q-8 0 -13 -5.5t-5 -12.5v-326q0 -7 5 -12.5
t12.5 -5.5t13 5.5t5.5 12.5v326q0 18 -18 18zM313.5 559q-7.5 0 -13 -5.5t-5.5 -12.5v-326q0 -7 5.5 -12.5t12.5 -5.5q5 0 9.5 2.5t6.5 6.5t2 9v326q0 7 -5 12.5t-12.5 5.5zM515 649q-91 0 -155.5 -27.5t-64.5 -66t64.5 -66t155.5 -27.5q45 0 85.5 7.5t70 20t47 30
t17.5 36.5q0 38 -64.5 65.5t-155.5 27.5zM515 498q-76 0 -130 17t-54 40.5t54 40.5t130 17t130 -17t54 -40.5t-54 -40.5t-130 -17zM729 467v-17h-31q0 -1 0.5 -3t0.5 -3q0 -25 -54 -42.5t-130 -17.5q-37 0 -71 5t-59 13t-39.5 19t-14.5 23q0 3 1 6h-31v17q-3 -6 -4.5 -11.5
t-1.5 -11.5q0 -40 64.5 -68t155.5 -28t155.5 28t64.5 68q0 10 -6 23zM729 352v-16h-31q1 -4 1 -6q0 -25 -54 -42.5t-130 -17.5t-130 17.5t-54 42.5q0 1 0.5 2.5t0.5 3.5h-31v16q-3 -6 -4.5 -11.5t-1.5 -10.5q0 -26 29.5 -48.5t80 -35.5t110.5 -13q91 0 155.5 28.5t64.5 68.5
q0 10 -6 22zM729 238v-17h-31q1 -3 1 -6q0 -25 -54 -42.5t-130 -17.5t-130 17.5t-54 42.5q0 3 1 6h-31v17q-3 -6 -4.5 -11.5t-1.5 -11.5q0 -39 64.5 -67.5t155.5 -28.5q45 0 85.5 7.5t70 20.5t47 31t17.5 37q0 11 -6 23z" />
    <glyph glyph-name="uniE608" unicode="&#xe608;" 
d="M506 896q-115 0 -194 -84q-72 -77 -73 -183q0 -110 78.5 -188t188.5 -78q43 0 84 13.5t73.5 38t57.5 57.5t38 73.5t13 83.5q0 73 -35.5 134.5t-97 97t-133.5 35.5zM507 402q-47 0 -89 18t-72.5 48.5t-48.5 72.5t-18 88q0 62 30.5 114t83 82.5t114 30.5t114 -30.5
t83 -82.5t30.5 -114q0 -94 -66.5 -160.5t-160.5 -66.5zM512 399q-99 0 -188.5 -38t-154.5 -103t-103.5 -155t-38.5 -188q0 -5 0.5 -11.5t0.5 -9.5t1 -11q18 -24 35 1v1l1 1q-1 19 -1 29q0 90 34.5 172t93.5 142t140.5 96t171.5 38l32 24l-16 12h-8zM809 298v-2
q-10 1 -15.5 -4t-7 -10t-1.5 -12q53 -41 92.5 -96t61 -121.5t21.5 -137.5q0 -10 -1 -29l1 -2l2 -2q1 -1 5 -4t8 -4t9.5 1t10.5 8q1 7 1 11t0.5 10t0.5 11q0 115 -50.5 215t-137.5 168z" />
    <glyph glyph-name="uniE609" unicode="&#xe609;" 
d="M506 895q-110 0 -188 -78t-78 -188t78 -188t188 -78t188 78t78 188q0 115 -83 194q-78 72 -183 72zM506.5 402q-61.5 0 -114 30.5t-82.5 82.5t-30 114q0 94 66.5 160.5t160.5 66.5q46 0 88 -18t72.5 -48.5t48.5 -72.5t18 -88q0 -62 -30.5 -114t-83 -82.5t-114 -30.5z
M809 297v-1q-23 2 -25 -26q82 -62 129 -155.5t47 -199.5q0 -10 -1 -29l1 -2l2 -2q1 -1 4.5 -4t7.5 -4t10 1t11 8q1 21 1 32q0 76 -23 148t-65 131t-99 103zM512 399q-99 0 -188.5 -38.5t-154.5 -103t-103 -154.5t-38 -188q0 -11 1 -32q18 -24 35 1l1 1v1q-1 19 -1 29
q0 120 58.5 222.5t160 162.5t221.5 63l32 24l-16 12h-8zM700 780l-73 55l-73 42l-109 -6l-96 -48l-73 -109l-30 -85l24 -73l30 -60l61 -67l66 -24l133 -18l109 60l61 85l24 109z" />
    <glyph glyph-name="uniE60A" unicode="&#xe60a;" horiz-adv-x="1091" 
d="M630 648h-297v-37h297v37zM1000 648h-279v-37h273q12 0 23 -4.5t19.5 -13t13 -19.5t4.5 -23v-546q0 -26 -13 -48.5t-35 -35.5t-49 -13h-824q-40 0 -68.5 28.5t-28.5 68.5v546q0 25 18 42.5t43 17.5h145v37h-151q-38 0 -64.5 -27t-26.5 -64v-564q0 -50 35.5 -85.5
t85.5 -35.5h848q50 0 86 35.5t36 85.5v564q0 37 -27 64t-64 27zM370 623v2v64q0 70 49.5 119.5t119.5 49.5h12q71 0 120.5 -49.5t49.5 -119.5v-64v-2h36v61q0 88 -62 150t-150 62q-57 0 -106 -28.5t-77.5 -77.5t-28.5 -106v-61h37z" />
    <glyph glyph-name="uniE60B" unicode="&#xe60b;" horiz-adv-x="1091" 
d="M630 648h-297v-37h297v37zM1000 648h-279v-37h273q12 0 23 -4.5t19.5 -13t13 -19.5t4.5 -23v-546q0 -26 -13 -48.5t-35 -35.5t-49 -13h-824q-40 0 -68.5 28.5t-28.5 68.5v546q0 6 1.5 12t3.5 11.5t5.5 10t7.5 9t9 7.5t10.5 5.5t11.5 3.5t12 1h145v37h-151
q-38 0 -64.5 -27t-26.5 -64v-564q0 -50 35.5 -85.5t85.5 -35.5h848q50 0 86 35.5t36 85.5v564q0 37 -27 64t-64 27zM370 623v2v64q0 70 49.5 119.5t119.5 49.5h12q71 0 120.5 -49.5t49.5 -119.5v-64v-2h36v61q0 88 -62 150t-150 62q-24 0 -48 -5.5t-45 -16t-39.5 -25
t-33 -33t-25 -39.5t-16 -44.5t-5.5 -48.5v-61h37zM1048 599l-24 30l-61 6l-218 -12l-12 61v-55l-6 19h-485l-115 -13l-66 -18l-37 -42l-6 -582l12 -42l73 -61h866l43 12l42 37l18 42v588z" />
    <glyph glyph-name="uniE60C" unicode="&#xe60c;" 
d="M885 36q0 1 1 7t-5.5 12t-19.5 4q-1 0 -2 -1q-44 -46 -98 -79.5t-118 -52t-131 -18.5q-97 0 -185 38t-151.5 101.5t-101.5 151.5t-38 185q0 77 24 150t68 131.5t102.5 102.5t131.5 68t150 24t150 -24t131.5 -68t102.5 -102.5t68 -131.5t24 -150q0 -12 -0.5 -24t-1.5 -24
l-4 -22q-1 -12 -3.5 -23.5t-5.5 -22.5l3 2q0 -1 0.5 -2.5t3.5 -5t6.5 -5t9.5 -0.5t13 5q15 61 15 122q0 139 -68.5 257t-186.5 186.5t-257 68.5t-257 -68.5t-186.5 -186.5t-68.5 -257t68.5 -257t186.5 -186.5t257 -68.5q110 0 207 43.5t169 120.5h-3zM725 197l-400 400
q-3 3 -6.5 4.5t-7 1.5t-6.5 -1.5t-6 -4.5q-5 -5 -5 -12.5t5 -12.5l401 -401q5 -5 12.5 -5t12.5 5q12 13 0 26zM723 595q-2 3 -5.5 4.5t-7 1.5t-6.5 -1.5t-6 -4.5l-397 -397q-4 -4 -5.5 -8.5t0 -9t5.5 -7.5q3 -4 7.5 -5.5t9.5 0t8 5.5l397 397q6 6 6 13t-6 12z" />
    <glyph glyph-name="uniE60D" unicode="&#xe60d;" horiz-adv-x="1085" 
d="M543 896q-59 0 -114 -18.5t-99.5 -51.5t-78 -77.5t-52 -100t-18.5 -113.5v-452h36v458q0 132 93.5 225.5t226.5 93.5h12q132 0 225.5 -93.5t93.5 -225.5v-476h36v470q0 98 -48 181t-131.5 131.5t-181.5 48.5zM193 480v-373h6v373h-6zM61 517q-25 0 -42.5 -18t-17.5 -43
v-331q0 -25 17.5 -42.5t42.5 -17.5h78v36h-66q-15 0 -25.5 10.5t-10.5 25.5v307q0 15 10.5 25.5t25.5 10.5h120v37h-132zM1025 517h-133v-37h121q14 0 25 -10.5t11 -25.5v-307q0 -10 -5 -18t-13.5 -13t-17.5 -5h-121v-36h133q24 0 42 17.5t18 42.5v331q0 25 -18 43t-42 18z
M886 480v-379h6v379h-6zM410 -38q-64 0 -116 35t-77 92h-36v-9q28 -68 90.5 -111t138.5 -43q8 0 16.5 0.5t16 1.5t15.5 3v37q-22 -6 -48 -6zM597 29h-151q-12 0 -23 -5t-19 -13t-13 -19t-5 -24v-36q0 -25 17.5 -42.5t42.5 -17.5h151q25 0 42.5 17.5t17.5 42.5v36
q0 25 -17.5 43t-42.5 18z" />
    <glyph glyph-name="uniE60E" unicode="&#xe60e;" horiz-adv-x="1085" 
d="M1077 508l-520 383q-5 5 -12.5 3.5t-12.5 -7.5t-3.5 -13.5t7.5 -12.5l520 -383q4 -3 9 -3.5t9.5 1.5t7.5 6q2 4 2 9t-1.5 9.5t-5.5 7.5zM554 889q-5 6 -12.5 7t-13.5 -3l-521 -382q-13 -10 -4 -25q5 -6 12.5 -7.5t13.5 2.5l521 382q14 11 4 26zM897 252v-344h-170
q-5 0 -9.5 2t-7.5 5.5t-5 8t-2 9.5v260h-36v-273q0 -20 14 -34t34 -14h200q2 0 4.5 0.5t4.5 1.5l4 4q2 1 3 3t1.5 4.5t0.5 4.5v315q0 17 -10 30t-26 17zM915 454q-8 0 -13 -5.5t-5 -13.5v-527q0 -3 1.5 -6.5t3.5 -6t5.5 -4t7.5 -1.5q8 0 13 5.5t5 12.5v527q0 8 -5 13.5
t-13 5.5zM382 -67q0 -7 -3.5 -12.5t-9 -9t-11.5 -3.5h-170v344q-16 -4 -26 -17t-10 -30v-315q0 -5 2 -9t6.5 -6.5t9.5 -2.5h200q20 0 34 14t14 34v273h-36v-260zM642 260h-200q-25 0 -42.5 -18t-17.5 -43v-260h36v260q0 7 3.5 12.5t9 8.5t11.5 3h200q10 0 17.5 -7t7.5 -17
v-260h36v260q0 25 -18 43t-43 18zM169.5 454q-7.5 0 -12.5 -5.5t-5 -13.5v-527q0 -5 2 -9t6.5 -6.5t9.5 -2.5q7 0 12.5 5.5t5.5 12.5v527q0 8 -5.5 13.5t-13 5.5z" />
    <glyph glyph-name="uniE60F" unicode="&#xe60f;" horiz-adv-x="1317" 
d="M592 896h-570q-6 0 -11 -3t-8 -8t-3 -11q0 -9 6.5 -15.5t15.5 -6.5h570q5 0 9 1.5t7 4.5t4.5 7t1.5 9q0 9 -6 15.5t-16 6.5zM468 413h-446q-9 0 -15.5 -6t-6.5 -15.5t6.5 -16t15.5 -6.5h446q9 0 15.5 6.5t6.5 15.5q0 6 -3 11.5t-8 8t-11 2.5zM1141 -84h-1119
q-9 0 -15.5 -6.5t-6.5 -15.5t6.5 -15.5t15.5 -6.5h1119q9 0 15.5 6.5t6.5 15.5t-6.5 15.5t-15.5 6.5zM1119 276q-86 -68 -197 -68q-88 0 -162 43.5t-117 117.5t-43 161q0 66 25.5 125.5t68.5 102.5t102.5 68.5t125.5 25.5q87 0 161 -43t117 -117t43 -162q0 -101 -58 -185
q0 -12 14.5 -20t21.5 0l2 1q-1 -2 -2 -5q66 94 66 209q0 100 -49 184t-133 133t-183 49q-75 0 -142.5 -29t-116.5 -78t-78 -116.5t-29 -142.5q0 -99 49 -183.5t133 -133t184 -48.5q121 0 218 72zM1314 -85l-175 334q-5 8 -13.5 10.5t-16.5 -2.5q-8 -4 -10.5 -12.5t2.5 -17.5
l175 -334q3 -5 8 -8t10.5 -3t11.5 3l4 4q2 2 3.5 4t2 5t0.5 6t-0.5 5.5t-1.5 5.5z" />
    <glyph glyph-name="uniE610" unicode="&#xe610;" horiz-adv-x="1317" 
d="M1314 -88l-175 334q-5 8 -13.5 10.5t-16.5 -1.5q-8 -5 -10.5 -13.5t2.5 -16.5l175 -335q3 -5 8 -8t10.5 -3t11.5 3q7 5 9.5 14t-1.5 16zM592 896h-570q-6 0 -11 -3t-8 -8t-3 -11q0 -9 6.5 -15.5t15.5 -6.5h570q5 0 9 1.5t7 4.5t4.5 7t1.5 9q0 9 -6 15.5t-16 6.5zM468 413
h-446q-9 0 -15.5 -6t-6.5 -15.5t6.5 -16t15.5 -6.5h446q9 0 15.5 6.5t6.5 15.5q0 6 -3 11.5t-8 8t-11 2.5zM1141 -84h-1119q-9 0 -15.5 -6.5t-6.5 -15.5t6.5 -15.5t15.5 -6.5h1119q9 0 15.5 6.5t6.5 15.5t-6.5 15.5t-15.5 6.5zM1121 278q-42 -33 -93 -51.5t-106 -18.5
q-88 0 -162 43.5t-117 117.5t-43 161q0 53 16 102t46 88.5t69.5 69.5t88.5 46t102 16q65 0 124.5 -25.5t102.5 -68.5t68.5 -102.5t25.5 -125.5q0 -101 -58 -185q0 -12 14.5 -20t21.5 0l2 1q-1 -2 -2 -5q66 94 66 209q0 34 -5.5 66t-17 61.5t-27 57t-36 51.5t-44 44t-51 36
t-57 27t-62 17t-65.5 6q-100 0 -184 -49t-133 -133t-49 -183.5t49 -184t133 -133t184 -48.5q123 0 219 73zM1236 655l-73 117l-88 73l-205 22l-87 -22l-125 -81l-51 -109l-36 -132l43 -139l95 -117l110 -66l139 -7l146 22q22 13 40.5 27.5t31.5 27t24 24.5t17.5 21.5
t11 16.5t5.5 11l2 3l29 176z" />
    <glyph glyph-name="uniE611" unicode="&#xe611;" horiz-adv-x="1091" 
d="M1030 896h-303v-36h291q15 0 25.5 -11t10.5 -26v-254h37v266q0 17 -8.5 31t-22.5 22t-30 8zM0 835v-266h36v254q0 15 11 26t26 11h284v36h-296q-17 0 -31 -8t-22 -22t-8 -31zM1054 -55q0 -15 -10.5 -26t-25.5 -11h-291v-36h303q25 0 43 18t18 43v266h-37v-254zM36 -55
v254h-36v-266q0 -25 18 -43t43 -18h296v36h-284q-4 0 -7 0.5t-6 2t-5.5 3t-5 3.5t-4.5 4t-3.5 5t-2.5 6l-2 6q-1 3 -1 7zM0 417h1091v-36h-1091v36z" />
    <glyph glyph-name="uniE612" unicode="&#xe612;" horiz-adv-x="1085" 
d="M1066 697h-1048q-8 0 -13 -5t-5 -13q0 -5 2.5 -9t6.5 -6.5t9 -2.5h1048q8 0 13 5t5 13q0 5 -2 9t-6.5 6.5t-9.5 2.5zM922 667v-723q0 -15 -11 -25.5t-26 -10.5h-686q-15 0 -25.5 10.5t-10.5 25.5v723h-37v-735q0 -25 18 -42.5t43 -17.5h711q24 0 42 17.5t18 42.5v735h-36
zM361 661v163q0 15 11 25.5t26 10.5h289q15 0 25.5 -10.5t10.5 -25.5v-163h36v175q0 25 -17.5 42.5t-42.5 17.5h-313q-25 0 -43 -17.5t-18 -42.5v-175h36zM343.5 529q-7.5 0 -13 -5.5t-5.5 -13.5v-451q0 -5 2.5 -9.5t6.5 -6.5t9 -2t9.5 2t6.5 6.5t2 9.5v451q0 8 -5 13.5
t-12.5 5.5zM741 529q-5 0 -9 -2.5t-6.5 -6.5t-2.5 -10v-451q0 -8 5 -13t13 -5q5 0 9 2t6.5 6.5t2.5 9.5v451q0 4 -1 6.5t-2.5 5t-4 4t-5 2.5t-5.5 1zM542 529q-8 0 -13 -5.5t-5 -13.5v-451q0 -8 5 -13t13 -5t13 5t5 13v451q0 6 -2.5 10t-6.5 6.5t-9 2.5z" />
    <glyph glyph-name="uniE613" unicode="&#xe613;" 
d="M105 632q-16 10 -29 22q-76 -124 -76 -270q0 -11 1 -32q16 7 36 8q0 3 -0.5 6t-0.5 6v6v6q0 134 69 248zM94 156q-16 -8 -35 -11q72 -135 207 -210q2 19 10 35q-117 68 -182 186zM251 782q117 78 261 78q16 0 24 -1v1q0 17 6 35q-10 1 -30 1q-157 0 -285 -86
q14 -12 24 -28zM746 -30q-109 -62 -234 -62q-10 0 -31 1q-1 -18 -10 -35q10 -1 20.5 -1.5t20.5 -0.5q139 0 260 70l-8 6l-6 8q-4 3 -6.5 6.5t-5.5 7.5zM971 612q-73 147 -220 226q-4 -18 -14 -34q130 -70 199 -204q18 9 35 12zM1023 403q-19 -6 -35 -6h-1q0 -2 0.5 -6
t0.5 -6q0 -148 -84 -270q15 -13 25 -27q95 133 95 297q0 12 -1 18zM743 -73q15 8 33 21q-41 31 -41 82q0 15 4 28.5t10.5 25t16.5 21t21.5 16t25 10.5t27.5 4q43 0 73 -31q15 22 17 26q-18 16 -41.5 25t-48.5 9q-58 0 -98.5 -40.5t-40.5 -97.5q1 -58 42 -99zM1023 411
q-22 -11 -48.5 -8.5t-48.5 17.5q-35 23 -43.5 64.5t15.5 77.5q26 39 75 44q-4 9 -7.5 16.5t-5.5 12.5t-2 6q-55 -12 -87 -59t-21 -103.5t59 -88.5q52 -35 113 -19q2 15 1 40zM740 842q-1 -16 -7 -30t-16.5 -26.5t-24.5 -20.5q-36 -22 -77.5 -12.5t-63.5 45.5q-23 38 -12 80
q-20 1 -36 1q-8 -52 19 -95q29 -49 85 -62.5t105 16.5q49 29 63 87q-21 11 -35 17zM268 -61q11 41 48 63q25 14 51 14t50 -13.5t38 -37.5q26 -43 7 -90q11 -1 19.5 -1.5t18.5 0.5q5 17 5 35t-5 36t-15 35q-28 50 -83.5 64.5t-105.5 -14.5q-22 -13 -37.5 -32t-22.5 -42
q4 -4 32 -17zM102 380q-46 25 -95 15q0 -3 0.5 -14t2.5 -25q40 11 76 -9q37 -21 48 -61.5t-9 -76.5q-24 -42 -72 -50q9 -19 18 -34q56 16 84 66q18 35 17.5 70.5t-19 67.5t-51.5 51zM288 736q-2 25 -12.5 47.5t-27.5 39.5q-19 -14 -29 -22q15 -13 24.5 -31.5t11.5 -39.5
q3 -42 -24.5 -74.5t-69.5 -35.5q-49 -4 -83 33q-10 -17 -17 -33q44 -39 101 -34t93.5 49t32.5 101zM580 270q-4 -3 -5 -3q-45 -26 -95.5 -12.5t-77.5 59.5q-16 31 -16.5 63.5t16.5 62t47 46.5q22 13 47.5 16t48.5 -3t43.5 -21.5t33.5 -37.5q20 -34 16 -75l36 -5
q3 25 -2.5 50t-18.5 48q-34 58 -99 75.5t-123 -15.5q-59 -34 -76 -99t16 -124q34 -58 99 -75.5t123 16.5q5 2 8.5 4.5t6.5 4.5z" />
    <glyph glyph-name="uniE614" unicode="&#xe614;" 
d="M512 896q-139 0 -257 -68.5t-186.5 -186.5t-68.5 -257t68.5 -257t186.5 -186.5t257 -68.5t257 68.5t186.5 186.5t68.5 257t-68.5 257t-186.5 186.5t-257 68.5zM512 -92q-97 0 -185 38t-151.5 101.5t-101.5 151.5t-38 185q0 77 24 150t68 131.5t102.5 102.5t131.5 68
t150 24t150 -24t131.5 -68t102.5 -102.5t68 -131.5t24 -150q0 -197 -139.5 -336.5t-336.5 -139.5zM521 577q-6 18 -20 32t-32.5 22.5t-40.5 13.5t-44.5 3t-45 -8.5t-42 -21t-34.5 -34.5t-24 -49.5t-9 -64.5t9 -66.5t21 -53.5t34.5 -46t37.5 -37t41 -34q25 -20 62.5 -48
t61 -45t25.5 -21q1 2 24.5 18.5t59.5 43.5t62 49q28 24 41.5 35.5t38 38t36 48t21 53.5t9.5 66q0 116 -88 160q-67 33 -137 9q-54 -21 -67 -63zM649 256q-23 -19 -54.5 -42t-52 -37t-21.5 -16q-2 3 -22.5 18t-53.5 39t-55 41q-28 21 -44.5 36.5t-37.5 41t-31.5 56.5
t-11.5 67q-1 48 13 82t36.5 50t51.5 20.5t58 -3.5t55 -27.5t42 -46.5q15 27 40.5 46.5t54 28t57.5 4t52.5 -21t38 -50.5t13.5 -80q0 -22 -5 -42t-11 -35.5t-17.5 -32.5t-20 -27.5t-24.5 -25.5t-24.5 -22.5t-25.5 -20.5zM325 468l85 91q-22 -3 -38.5 -13.5t-25 -23t-13.5 -25
t-6 -20.5z" />
    <glyph glyph-name="uniE615" unicode="&#xe615;" 
d="M988 282v-338q0 -15 -10.5 -25.5t-25.5 -10.5h-880q-15 0 -25.5 10.5t-10.5 25.5v880q0 15 10.5 25.5t25.5 10.5h368v36h-380q-25 0 -42.5 -17.5t-17.5 -42.5v-904q0 -25 17.5 -42.5t42.5 -17.5h904q16 0 30 8t22 22t8 30v350h-36zM584 896h-217q-5 0 -9 -2.5t-6.5 -6.5
t-2.5 -9q0 -4 1.5 -7.5t4 -5.5t6 -3.5t6.5 -1.5h217q5 0 9.5 2.5t6.5 6.5t2 9q0 8 -5 13t-13 5zM1006 360q-8 0 -13 -5t-5 -13v-217q0 -5 2.5 -9t6.5 -6.5t9 -2.5t9 2.5t6.5 6.5t2.5 9v217q0 4 -1.5 7t-4 5.5t-5.5 4t-7 1.5zM351 193q2 -2 123 39l-92 91zM414 356l93 -92
l437 437l-92 93zM1005 841l-13 13q-14 14 -39.5 14.5t-38.5 -13.5l-29 -29l92 -92l29 29q13 13 13 39t-14 39z" />
    <glyph glyph-name="uniE616" unicode="&#xe616;" horiz-adv-x="1085" 
d="M1077 508l-520 383q-5 5 -12.5 3.5t-12.5 -7.5t-3.5 -13.5t7.5 -12.5l520 -383q4 -3 9 -3.5t9.5 1.5t7.5 6q2 4 2 9t-1.5 9.5t-5.5 7.5zM554 889q-5 6 -12.5 7t-13.5 -3l-521 -382q-13 -10 -4 -25q5 -6 12.5 -7.5t13.5 2.5l521 382q14 11 4 26zM897 252v-344h-170
q-5 0 -9.5 2t-7.5 5.5t-5 8t-2 9.5v260h-36v-273q0 -20 14 -34t34 -14h200q2 0 4.5 0.5t4.5 1.5l4 4q2 1 3 3t1.5 4.5t0.5 4.5v315q0 17 -10 30t-26 17zM915 454q-8 0 -13 -5.5t-5 -13.5v-527q0 -3 1.5 -6.5t3.5 -6t5.5 -4t7.5 -1.5q8 0 13 5.5t5 12.5v527q0 8 -5 13.5
t-13 5.5zM382 -67q0 -7 -3.5 -12.5t-9 -9t-11.5 -3.5h-170v344q-16 -4 -26 -17t-10 -30v-315q0 -5 2 -9t6.5 -6.5t9.5 -2.5h200q20 0 34 14t14 34v273h-36v-260zM642 260h-200q-25 0 -42.5 -18t-17.5 -43v-260h36v260q0 7 3.5 12.5t9 8.5t11.5 3h200q10 0 17.5 -7t7.5 -17
v-260h36v260q0 25 -18 43t-43 18zM152 399v-491q0 -5 2 -9t6.5 -6.5t9.5 -2.5q1 0 2 0.5t3 0.5zM570 860l-31 12l-387 -291v-691h212l30 18l6 85l6 224l24 25l200 -6l43 -7l-13 13l19 -6l12 -25l-6 -212l12 -85l18 -24l121 -6l67 12l12 85l18 461v145z" />
    <glyph glyph-name="uniE617" unicode="&#xe617;" 
d="M656 271q-12 -9 -24.5 -17t-26 -14.5t-27 -12.5t-28.5 -10t-30 -7t-31 -4.5t-32 -1.5q-88 0 -162.5 43t-118 118t-43.5 163q0 29 5.5 58t15 55t23.5 50.5t32.5 45.5t39.5 39t45 32t50 23.5t55 15t58 5.5q88 0 163 -43.5t118.5 -118t43.5 -162.5q0 -102 -59 -187
q0 -8 7 -15t15 -8.5t14 3.5h2l-2 -4q67 94 67 211q0 75 -29.5 143t-78.5 117.5t-117.5 78.5t-143.5 29q-146 0 -253 -101q-105 -99 -114 -243q-1 -13 -1 -24q0 -100 49.5 -185t134 -134.5t184.5 -49.5q122 0 220 73zM930 -93l-255 348q-1 2 -3.5 4t-5 3t-5.5 1.5t-6 0
t-5.5 -1.5t-4.5 -3q-8 -5 -9 -14t4 -16l255 -348q6 -7 15 -8.5t16 3.5q8 6 9 15t-5 16z" />
    <glyph glyph-name="uniE618" unicode="&#xe618;" horiz-adv-x="1085" 
d="M313 715q-24 0 -46.5 -9.5t-38.5 -25.5t-25.5 -38.5t-9.5 -46.5q0 -16 4 -32t12 -29t19 -24t24.5 -19t29 -12.5t31.5 -4.5q50 0 85.5 35.5t35.5 85.5t-35.5 85t-85.5 35zM313 510q-35 0 -59.5 25t-24.5 60t24.5 59.5t59.5 24.5q17 0 33 -6.5t27 -18t18 -27t7 -32.5
t-7 -32.5t-18 -27t-27 -18.5t-33 -7zM562 41l-2 30l346 361l178 -183v52l-180 185l-374 -391l-7 -54h39zM367 258l-337 -326v-60l28 33l312 298l323 -331h48zM1024 896h-964q-25 0 -42.5 -17.5t-17.5 -42.5v-904q0 -25 17.5 -42.5t42.5 -17.5h964q25 0 42.5 17.5t17.5 42.5
v904q0 16 -8 30t-22 22t-30 8zM1048 -56q0 -9 -5 -17.5t-13 -13.5t-18 -5h-940q-15 0 -25.5 10.5t-10.5 25.5v880q0 15 10.5 25.5t25.5 10.5h940q5 0 9.5 -1.5t8.5 -3.5t7.5 -5.5t5.5 -7.5t3.5 -8.5t1.5 -9.5v-880z" />
    <glyph glyph-name="uniE619" unicode="&#xe619;" horiz-adv-x="1091" 
d="M630 648h-297v-37h297v37zM1000 648h-279v-37h273q12 0 23 -4.5t19.5 -13t13 -19.5t4.5 -23v-546q0 -26 -13 -48.5t-35 -35.5t-49 -13h-824q-40 0 -68.5 28.5t-28.5 68.5v546q0 6 1.5 12t3.5 11.5t5.5 10t7.5 9t9 7.5t10.5 5.5t11.5 3.5t12 1h145v37h-151
q-38 0 -64.5 -27t-26.5 -64v-564q0 -50 35.5 -85.5t85.5 -35.5h848q50 0 86 35.5t36 85.5v564q0 37 -27 64t-64 27zM370 623v2v64q0 70 49.5 119.5t119.5 49.5h12q71 0 120.5 -49.5t49.5 -119.5v-64v-2h36v61q0 88 -62 150t-149.5 62t-150 -62t-62.5 -150v-61h37zM557 496
q-84 0 -150 -52.5t-85 -132.5l36 -4q18 67 73.5 110t125.5 43q34 0 65.5 -10.5t57 -29.5t44.5 -44.5t29 -57t10 -64.5q0 -86 -60 -146t-146 -60h-11h-1v-36h3h4q1 0 2.5 -0.5t2.5 -0.5q101 0 172 71t71 172q0 107 -79 179q-70 63 -164 63zM285 320v-6h6v-6h6v-6h6v-6h6v-6h6
v-6h6v-6h6v-6h6v-6h6v-6h6v6h6v6h6v6h7v6h6v6h6v6h6v6h6v6h6v6h6v6h-115z" />
    <glyph glyph-name="uniE61A" unicode="&#xe61a;" 
d="M512 896q-139 0 -257 -68.5t-186.5 -186.5t-68.5 -257t68.5 -257t186.5 -186.5t257 -68.5t257 68.5t186.5 186.5t68.5 257t-68.5 257t-186.5 186.5t-257 68.5zM512 -92q-97 0 -185 38t-151.5 101.5t-101.5 151.5t-38 185q0 77 24 150t68 131.5t102.5 102.5t131.5 68
t150 24t150 -24t131.5 -68t102.5 -102.5t68 -131.5t24 -150q0 -197 -139.5 -336.5t-336.5 -139.5zM626 523h-228q-8 0 -13.5 -5.5t-5.5 -13t5.5 -13t13.5 -5.5h228q3 0 6 1t5 2.5t4 4t3 5t1 5.5q0 8 -5.5 13.5t-13.5 5.5zM626 444h-228q-5 0 -9.5 -2t-7 -6.5t-2.5 -9.5
q0 -8 5.5 -13t13.5 -5h228q5 0 9.5 2.5t7 6.5t2.5 9q0 8 -5.5 13t-13.5 5zM566 366h-168q-5 0 -9.5 -2.5t-7 -6.5t-2.5 -9q0 -8 5.5 -13t13.5 -5h168q8 0 13 5t5 13t-5 13t-13 5zM307 137h24v446q0 6 2.5 11.5t6.5 9.5t9.5 6.5t11.5 2.5h302q12 0 21 -9t9 -21v-446h36v452
q0 25 -18 42.5t-42 17.5h-314q-24 0 -42 -17.5t-18 -42.5v-454q6 2 12 2zM717 155l-79 72l-66 -54l-66 54l-66 -54l-67 48l-78 -78v-12h37l41 48l67 -48l66 54l66 -54l66 54l55 -54h32zM289 35zM711 396q-5 0 -9.5 -2.5t-6.5 -6.5t-2 -9v-241q0 -2 1 -4v-4q1 -2 2.5 -3.5
t3.5 -2.5l2 -2q2 -1 4.5 -1.5t4.5 -0.5q5 0 9 2.5t6.5 6.5t2.5 9v241q0 8 -5.5 13t-12.5 5zM313.5 396q-7.5 0 -13 -5t-5.5 -13v-241q0 -5 2.5 -9t6.5 -6.5t9 -2.5q8 0 13 5t5 13v241q0 8 -5 13t-12.5 5z" />
    <glyph glyph-name="uniE61B" unicode="&#xe61b;" horiz-adv-x="1138" 
d="M613 765q-12 0 -19.5 -7.5t-7.5 -19.5v-647q0 -8 3.5 -14t9.5 -9t14 -3q11 0 18.5 7.5t7.5 18.5v647q0 8 -3.5 14t-9.5 9.5t-13 3.5zM26 765q-11 0 -18.5 -7.5t-7.5 -19.5v-647q0 -5 1.5 -9t3.5 -7t5.5 -5.5t7.5 -3.5t8 -1q8 0 14 3t9.5 9t3.5 14v647q0 8 -3.5 14
t-9.5 9.5t-14 3.5zM630 631v-24h-45q1 -5 1 -9q0 -17 -21 -33.5t-57 -28t-85 -18.5t-104 -7q-150 0 -228 42q-38 22 -38 45q0 4 1 9h-45v24q-9 -18 -9 -33q0 -37 42.5 -69.5t116.5 -51.5t160 -19q133 0 226.5 41.5t93.5 98.5q0 9 -2.5 16.5t-6.5 16.5zM630 465v-24h-45
q0 -2 0.5 -4.5t0.5 -4.5q0 -18 -21 -34t-57 -27.5t-85 -18.5t-104 -7q-150 0 -228 42q-38 22 -38 45q0 4 1 9h-45v24q-9 -18 -9 -33q0 -28 25.5 -54t68 -45t101.5 -30t124 -11q162 0 258 57q61 38 62 83q0 8 -2.5 16t-6.5 17zM630 298v-23h-45q1 -6 1 -9q0 -24 -35.5 -44
t-97 -32t-134.5 -12q-150 0 -228 43q-38 21 -38 45q0 2 0.5 4t0.5 5h-45v23q-3 -5 -5 -10t-3 -11t-1 -11q0 -38 42.5 -70.5t116.5 -51t160 -18.5q66 0 125 11t101.5 30t68 44.5t25.5 54.5q0 15 -9 32zM630 132v-24h-45q1 -5 1 -8q0 -24 -35.5 -44t-97 -32t-134.5 -12
q-150 0 -228 43q-38 21 -38 45q0 3 1 8h-45v24q-9 -18 -9 -32q0 -58 93.5 -99t225.5 -41q87 0 161 18.5t116.5 51t42.5 70.5q0 14 -9 32zM319.5 896q-132.5 0 -226 -39.5t-93.5 -96.5q0 -37 42.5 -68t116 -49t160.5 -18t161 18t116.5 49t42.5 68q0 57 -93.5 96.5t-226 39.5z
M319 677q-110 0 -188 24.5t-78 59t78 58.5t188.5 24t188.5 -24t78 -59q0 -11 -9.5 -21.5t-26.5 -20t-42 -17t-54 -13t-63.5 -8.5t-71.5 -3zM1111.5 511q-11.5 0 -19 -7.5t-7.5 -18.5v-473q0 -11 7.5 -18.5t19 -7.5t19 7.5t7.5 18.5v473q0 11 -7.5 18.5t-19 7.5zM525 511
q-4 0 -7 -1t-6 -2.5t-5.5 -4t-4 -5.5t-2.5 -6.5t-1 -6.5v-473q0 -5 2 -10t5.5 -8.5t8.5 -5.5t10 -2q11 0 18.5 7.5t7.5 18.5v473q0 11 -7.5 18.5t-18.5 7.5zM818.5 642q-132.5 0 -226 -39.5t-93.5 -96t93.5 -96t225.5 -39.5q87 0 160.5 18t116.5 49.5t43 68.5
q0 56 -93.5 95.5t-226 39.5zM818 423q-43 0 -83.5 4.5t-73.5 12t-58 18t-38.5 23t-13.5 26.5q0 16 21.5 31.5t57 26.5t85 18t103.5 7q73 0 134.5 -11.5t97 -30.5t35.5 -41q0 -17 -21 -32.5t-57 -26.5t-85.5 -18t-103.5 -7zM1129 377v-24h-45q1 -5 1 -8q0 -24 -35.5 -44
t-97 -32t-134.5 -12q-110 0 -188.5 26t-78.5 62q0 1 1 3v2q1 2 1 3h-45v24q-3 -6 -5 -11t-3 -10.5t-1 -10.5q0 -38 42.5 -70.5t116 -51t160.5 -18.5q65 0 124.5 11t102 29.5t68 44.5t25.5 55q0 3 -0.5 6.5t-1.5 6.5t-2 6.5t-2 6.5t-3 6zM1129 211v-24h-45q1 -5 1 -9
q0 -23 -35.5 -43.5t-97 -32t-134.5 -11.5q-110 0 -188.5 25.5t-78.5 61.5q0 4 2 9h-45v24q-3 -6 -5 -11t-3 -10.5t-1 -11.5q0 -38 42.5 -70t116 -51t160.5 -19q65 0 124.5 11.5t102 30t68 44.5t25.5 54q0 15 -9 33zM1129 44v-23h-45q1 -5 1 -9q0 -12 -9.5 -23t-26.5 -21
t-42 -18t-54 -13.5t-63.5 -8.5t-71.5 -3q-110 0 -188.5 25.5t-78.5 61.5q0 4 2 9h-45v23q-3 -5 -5 -10t-3 -10.5t-1 -11.5q0 -38 42.5 -70t116 -51t160.5 -19q65 0 124.5 11t102 30t68 45t25.5 54q0 15 -9 32z" />
    <glyph glyph-name="uniE61C" unicode="&#xe61c;" horiz-adv-x="1280" 
d="M327 199q-68 0 -115.5 -48t-47.5 -115.5t47.5 -115.5t115.5 -48t116 48t48 116q0 79 -63 128q-45 35 -101 35zM327 -85q-50 0 -85.5 35t-35.5 85.5t35.5 85.5t85.5 35t85.5 -35t35.5 -85.5t-35.5 -85.5t-85.5 -35zM981.5 199q-67.5 0 -115.5 -48t-48 -115.5t48 -115.5
t115 -48q45 0 82.5 22t59.5 59.5t22 82.5q0 67 -48 115t-115.5 48zM981 -85q-50 0 -85.5 35t-35.5 86q0 32 16.5 60t44 44t60.5 16q20 0 38.5 -6t33.5 -17t26 -26t17 -33.5t6 -37.5q0 -33 -16 -61t-44 -44t-61 -16zM434 555q-6 0 -11 -3t-8 -8t-3 -11v-177q0 -6 3 -11t8 -8
t11 -3t11 3t7.5 8t2.5 11v177q0 9 -6 15.5t-15 6.5zM412 377h-177q-9 0 -15.5 -6t-6.5 -15q0 -6 3 -11t8 -8t11 -3h177q6 0 11 3t8 8t3 11q0 9 -6 15t-16 6zM1259 277q-5 0 -9 -1.5t-6.5 -4.5t-4.5 -7t-2 -8v-178q0 -6 3 -11t8 -7.5t11 -2.5q4 0 8 1.5t7 4.5t4.5 7t1.5 8
v178q0 6 -3 11t-7.5 7.5t-10.5 2.5zM21 242q-9 0 -15 -6t-6 -16v-177q0 -6 3 -11t7.5 -8t10.5 -3t11 3t8 8t3 11v177q0 5 -2 9t-4.5 6.5t-6.5 4.5t-9 2zM818 57h-320q-5 0 -9 -1.5t-6.5 -4.5t-4.5 -7t-2 -8q0 -10 6.5 -16t15.5 -6h320q9 0 15 6t6 15.5t-6 15.5t-15 6z
M284 697q-9 -12 -16 -19.5t-10 -8.5l-2 -1l-213 -135q-2 0 -5 -1.5t-10.5 -5.5t-13 -9t-10 -12t-4.5 -14v-420h43v384q-2 22 14 29l227 142q18 10 36 28q13 13 3 39q-9 26 -28 14q-5 -3 -11 -10zM1237 747v-598h43v605q0 58 -42 100t-100 42h-711q-59 0 -101 -42t-42 -100
v-93h43v86q0 44 31.5 75t75.5 31h697q29 0 53.5 -14t38.5 -38.5t14 -53.5z" />
    <glyph glyph-name="uniE61D" unicode="&#xe61d;" horiz-adv-x="1111" 
d="M555 758q-15 42 -53.5 74.5t-88.5 46.5t-106.5 15.5t-110.5 -21.5t-98 -61.5t-70.5 -106.5t-27.5 -155q0 -48 9 -93.5t22 -81t36.5 -72t43.5 -61.5t52 -55.5t53 -48t55 -45.5q48 -39 120 -93t116 -87.5t49 -40.5q2 3 46 35.5t113 84.5t118 94q3 3 9 8q36 31 55 48
t52.5 49.5t52 57t42.5 61.5t36.5 71.5t21.5 79t8 91.5q0 121 -52 204t-128 111.5t-155 27.5t-141 -39.5t-79 -97.5zM814 112q-45 -39 -109.5 -87.5t-105.5 -78.5t-43 -33q-4 7 -45.5 38t-108.5 81t-111 86q-33 26 -52 42.5t-49.5 45t-49 52t-40.5 57.5t-34.5 67t-20.5 75
t-8 87q0 71 19 128.5t49.5 94t71 59.5t84 29t88.5 -0.5t84.5 -26.5t71.5 -52.5t50 -73.5q14 41 44 73.5t68.5 52.5t84 27.5t90 1.5t86.5 -29t74 -59t51.5 -93.5t19.5 -129.5q1 -44 -7.5 -85.5t-20 -73.5t-34 -66.5t-40 -57t-48.5 -53t-48.5 -46.5t-51.5 -44q-6 -6 -9 -8z
M154 523l204 198q-50 -12 -89.5 -36.5t-60 -51t-34 -52t-16.5 -41.5z" />
  </font>
</defs>
</svg>
